<svg xmlns="http://www.w3.org/2000/svg" viewBox="0 0 228.33 242.98"><defs><style>.cls-1{fill:#5e5e5e;opacity:0.08;}</style></defs><g id="레이어_2" data-name="레이어 2"><g id="레이어_1-2" data-name="레이어 1"><path class="cls-1" d="M110.51,28.09C4.1,38.85-.15,111.71.87,131.5a2.52,2.52,0,0,0,3.84,2c.94-.52,1.1-1.2,2-2.33l.71-1.08c20-29.77,22.41-32.68,45.69-49.89a12.52,12.52,0,0,1-.72-3.64A12.69,12.69,0,1,1,65.67,88.72a12.53,12.53,0,0,1-6.76-1.59c-10.18,7.08-22.76,13.68-41.18,42.37-1.26,2-2.61,3.87-4,5.77-6.26,8.6-12,25.23-13.31,34.24a45.65,45.65,0,0,0,1.69,19.93c.07.19.39,1.29.47,1.48C9.61,210,25.78,222,44.26,214c2.47-1.07,1.72-2.56.84-2.84s-6.3.45-6.3.45l-.48.05a22,22,0,0,1-19.23-7.49c-17-20.51-4.61-46.83.15-55.26a5.73,5.73,0,0,1,4.59-2.9c34.49-2.37,55.48-17.79,69.09-36.61l5.39-8.27.18-.3c15-26.12,17.07-56.07,17.25-67.95a4.74,4.74,0,0,0-5.23-4.78"/><path class="cls-1" d="M70.78,75.9a5.7,5.7,0,1,1-6-5.44,5.72,5.72,0,0,1,6,5.44"/><path class="cls-1" d="M199.63,184.69c53-93.39-3.48-139.16-20.1-149.81a2.52,2.52,0,0,0-3.89,2c-.11,1.07.34,1.59.74,3l.46,1.21c12.52,33.62,13.45,37.32,13.88,66.37a12.52,12.52,0,0,1,3.36,1.53,12.79,12.79,0,0,1,3.83,17.62,12.65,12.65,0,0,1-17.53,3.85,12.81,12.81,0,0,1-3.82-17.63,12.53,12.53,0,0,1,5.21-4.61c.18-12.45,2.13-26.58-10.4-58.32-.86-2.18-1.63-4.39-2.36-6.61-3.33-10.14-13.47-24.49-20-30.79A45,45,0,0,0,131.88,2.28c-.19-.07-1.27-.43-1.46-.48-19.49-5.3-38.6,1-42.87,20.73-.57,2.65,1.07,2.9,1.82,2.34s3.28-5.41,3.28-5.41l.24-.44c3.67-6.35,10-10.83,17.23-11.39,26.49-2,40.59,23.4,44.66,32.2a5.77,5.77,0,0,1-.32,5.44C136.37,74.88,136.66,101,144,123.09l3.57,9.22c0,.11.08.21.13.32,12.42,27.47,35.49,46.53,45,53.56a4.72,4.72,0,0,0,6.91-1.5"/><path class="cls-1" d="M184,124.41a5.76,5.76,0,0,1-1.71-7.92,5.68,5.68,0,0,1,7.87-1.73,5.74,5.74,0,0,1,1.71,7.92,5.68,5.68,0,0,1-7.87,1.73"/><path class="cls-1" d="M24.59,165.21c44.31,97.88,114.29,78.52,132.59,71.2a2.54,2.54,0,0,0,.69-4.32c-.79-.72-1.48-.66-2.83-1.15l-1.25-.33c-34.45-9.45-38-10.85-61.65-27.49A12.43,12.43,0,0,1,88.93,205a12.8,12.8,0,1,1,7.83-9.6c9.93,7.43,20.19,17.28,53.12,25.61,2.26.57,4.49,1.24,6.71,1.94,10.12,3.21,27.63,3.33,36.53,1.69a45,45,0,0,0,18.22-8c.17-.12,1.09-.79,1.24-.92,15.68-12.8,21.79-32.07,8.34-47.1-1.8-2-3-.82-2.94.11s2.44,5.85,2.44,5.85c.08.16.15.3.21.45a22.38,22.38,0,0,1-.88,20.72c-13.85,22.8-42.61,19.44-52.08,17.61a5.77,5.77,0,0,1-4.21-3.44c-13.32-32.08-34.57-47.12-56.67-54l-9.51-2.47-.34-.08C67.51,147.36,38.65,155,27.4,158.7a4.75,4.75,0,0,0-2.81,6.51"/><path class="cls-1" d="M82.37,187.67a5.73,5.73,0,1,1-3.21,7.44,5.69,5.69,0,0,1,3.21-7.44"/></g></g></svg>