<svg xmlns="http://www.w3.org/2000/svg" viewBox="0 0 37.08 37.87"><defs><style>.cls-1{fill:#00c8d5;}</style></defs><g id="레이어_2" data-name="레이어 2"><g id="레이어_1-2" data-name="레이어 1"><path class="cls-1" d="M35,17.22H17.11l6.8-7a2.19,2.19,0,0,0,0-3,2.08,2.08,0,0,0-2.95,0L10.62,17.48a2.08,2.08,0,0,0,0,2.94L21,30.75a2.09,2.09,0,0,0,2.95,0,1.88,1.88,0,0,0,0-2.78l-6.72-6.54H35a2.11,2.11,0,0,0,0-4.21Z"/><path class="cls-1" d="M19.07,37.87h-17A2.08,2.08,0,0,1,0,35.78V2.09A2.09,2.09,0,0,1,2.09,0h17a2.09,2.09,0,1,1,0,4.18H4.18V33.69H19.07a2.09,2.09,0,0,1,0,4.18Z"/></g></g></svg>