<svg xmlns="http://www.w3.org/2000/svg" viewBox="0 0 58.9 71"><defs><style>.cls-1{fill:#fff;opacity:0.25;}</style></defs><g id="레이어_2" data-name="레이어 2"><g id="레이어_1-2" data-name="레이어 1"><path class="cls-1" d="M47.73,47.89c0,.07-.09.14-.14.2l-.57.79a1.47,1.47,0,0,0-.1.13l-.51.63-.2.24c-.19.22-.38.44-.58.65l-.25.26L45,51.2l-.32.3-.55.51-.41.35-.25.21c-.49.4-1,.78-1.51,1.13l-.11.08c-.55.37-1.12.72-1.71,1h0A22.31,22.31,0,0,1,34.6,57L13.13,62.13,8,40.65A22.06,22.06,0,0,1,24.3,14L45.77,8.88l2.81,11.7a14.83,14.83,0,0,1-11,17.88L25.91,41.27l-1-4.36a5.08,5.08,0,0,1,3.76-6.13l6.8-1.63A4.85,4.85,0,0,0,39,23.3l-.58-2.44L26.62,23.69A12.09,12.09,0,0,0,19,29.32a12.47,12.47,0,0,0-1.3,9.24L18.75,43l1.72,7.15L38,45.94h0l.25,0,1-.25a22.71,22.71,0,0,0,12.16-8.06A22.17,22.17,0,0,1,50.21,43h0c0,.12-.1.25-.14.37l-.15.39c-.1.24-.21.49-.32.73l-.17.39c-.12.25-.25.5-.38.75s-.11.22-.17.34c-.2.35-.4.71-.61,1.06h0q-.26.42-.54.84M58.08,28.63,51.21,0,22.58,6.87A29.44,29.44,0,0,0,.82,42.37L7.68,71l28.64-6.87a29.44,29.44,0,0,0,21.76-35.5"/></g></g></svg>