<svg xmlns="http://www.w3.org/2000/svg" viewBox="0 0 125.65 34.61"><defs><style>.cls-1{fill:#fff;}</style></defs><g id="레이어_2" data-name="레이어 2"><g id="레이어_1-2" data-name="레이어 1"><path class="cls-1" d="M70.35,9.6l0,0-.12.15s0,0,0,0a1.13,1.13,0,0,1-.1.13L70,10l-.11.13-.05,0a.6.6,0,0,0-.08.08l-.07.06-.11.1a.27.27,0,0,1-.08.07.1.1,0,0,1-.05,0l-.3.23,0,0-.35.21h0a4.93,4.93,0,0,1-1.1.43l-4.31,1-1-4.3a4.43,4.43,0,0,1,3.27-5.34l4.31-1,.56,2.35a3,3,0,0,1-2.2,3.58L66,8.27l-.21-.87a1,1,0,0,1,.75-1.23l1.36-.33a1,1,0,0,0,.72-1.17l-.12-.49-2.36.57a2.37,2.37,0,0,0-1.53,1.13,2.48,2.48,0,0,0-.26,1.85l.21.88.34,1.44,3.52-.84h0l.2,0a4.51,4.51,0,0,0,2.44-1.61,4.2,4.2,0,0,1-.25,1.09h0l0,.07,0,.08a1,1,0,0,1-.07.15l0,.07a.8.8,0,0,1-.08.16l0,.06-.12.22h0a1,1,0,0,0-.11.17m2.07-3.86L71.05,0,65.31,1.38A5.88,5.88,0,0,0,61,8.49l1.37,5.74,5.74-1.38a5.9,5.9,0,0,0,4.36-7.11"/><path class="cls-1" d="M121.93,17.74v3.68a3.69,3.69,0,0,1-1,2.62,3.39,3.39,0,0,1-4.75,0,3.65,3.65,0,0,1-.93-2.62V17.76a2,2,0,0,0-2-2l-1.84,0v6.09a7,7,0,0,0,.85,3.51,5.89,5.89,0,0,0,2.33,2.34,6.54,6.54,0,0,0,3.29.83,5.33,5.33,0,0,0,4-1.61v0a3.88,3.88,0,0,1-.31,1.54,4,4,0,0,1-1.43,1.75,4,4,0,0,1-1,.49,3.77,3.77,0,0,1-1.17.18h-1.37v3.72H118a7.62,7.62,0,0,0,3-.6,7.79,7.79,0,0,0,3.38-2.78,7.55,7.55,0,0,0,1.31-4.3V15.74h-1.72a2,2,0,0,0-2,2"/><path class="cls-1" d="M105,25a3.39,3.39,0,0,1-4.77,0,3.6,3.6,0,0,1-.94-2.62,3.59,3.59,0,0,1,.94-2.61,3.39,3.39,0,0,1,4.77,0,3.62,3.62,0,0,1,.93,2.61A3.63,3.63,0,0,1,105,25m1.28-8.45a7.72,7.72,0,0,0-3.66-.85A7.8,7.8,0,0,0,99,16.6,6.41,6.41,0,0,0,96.42,19a6.59,6.59,0,0,0-.91,3.45,6.54,6.54,0,0,0,.91,3.45A6.36,6.36,0,0,0,99,28.25a7.8,7.8,0,0,0,3.68.86,7.9,7.9,0,0,0,3.31-.68v.67h3.81V15.73H108a2,2,0,0,0-1.65.86"/><path class="cls-1" d="M90,25a3.38,3.38,0,0,1-4.76,0,3.63,3.63,0,0,1-.93-2.62,3.62,3.62,0,0,1,.93-2.61,3.38,3.38,0,0,1,4.76,0A3.59,3.59,0,0,1,91,22.42,3.6,3.6,0,0,1,90,25m1.3-8.44a7.83,7.83,0,0,0-3.68-.86,7.66,7.66,0,0,0-3.66.85,2,2,0,0,0-1.65-.86H80.51V34.61h3.81V28.43a8.35,8.35,0,0,0,7-.18,6.34,6.34,0,0,0,2.54-2.38,6.93,6.93,0,0,0,0-6.9,6.38,6.38,0,0,0-2.54-2.37"/><path class="cls-1" d="M75.24,15.8a8.86,8.86,0,0,0-7.82,0,6.87,6.87,0,0,0-2,1.56s-6.25,7.34-6.33,7.42a3.68,3.68,0,0,1-2.5,1,3.4,3.4,0,0,1-2.57-1A3.82,3.82,0,0,1,53,22a3.85,3.85,0,0,1,1-2.79,3.38,3.38,0,0,1,2.54-1,4.33,4.33,0,0,1,2.56,1A2,2,0,0,0,61.78,19l1.07-1.11a6.83,6.83,0,0,0-2.39-2.06,8.86,8.86,0,0,0-7.82,0,6.79,6.79,0,0,0-2.7,2.53,7.36,7.36,0,0,0,0,7.34,6.79,6.79,0,0,0,2.7,2.53,8.86,8.86,0,0,0,7.82,0,6.84,6.84,0,0,0,2.13-1.73h0s6.07-7.13,6.21-7.26a3.54,3.54,0,0,1,2.54-1,3.35,3.35,0,0,1,2.53,1,3.88,3.88,0,0,1,1,2.79,3.86,3.86,0,0,1-1,2.78,3.61,3.61,0,0,1-5.07,0,3.54,3.54,0,0,1-1-2.15l-2.79,3.26a5.51,5.51,0,0,0,2.37,2.31,8.86,8.86,0,0,0,7.82,0,6.79,6.79,0,0,0,2.7-2.53,7,7,0,0,0,1-3.67,7,7,0,0,0-1-3.67,6.79,6.79,0,0,0-2.7-2.53"/><path class="cls-1" d="M37.39,20.79a3.3,3.3,0,0,1,1.13-2.1,3.43,3.43,0,0,1,2.29-.77,3.39,3.39,0,0,1,2.26.78,3.29,3.29,0,0,1,1.12,2.09Zm7.06-5a8.2,8.2,0,0,0-7.43,0,6.79,6.79,0,0,0-2.64,2.54,7.09,7.09,0,0,0-1,3.66,7,7,0,0,0,1,3.67,6.73,6.73,0,0,0,2.77,2.53,9.13,9.13,0,0,0,4.13.91h5.15V27.9a2,2,0,0,0-2-2h-3a4.45,4.45,0,0,1-2.62-.74,3.25,3.25,0,0,1-1.33-2H47.89c0-.67.08-1,.08-1.08A7.43,7.43,0,0,0,47,18.26a6.34,6.34,0,0,0-2.58-2.5"/><path class="cls-1" d="M2.92,8.28A12.46,12.46,0,0,0,.08,17.65C.84,24.17,6.84,29.37,14.35,30l.53.05V15.77H10.81v9.67a10.44,10.44,0,0,1-6.65-7.91,9.09,9.09,0,0,1,1.89-6.9,12.26,12.26,0,0,1,8.39-4.47l.44,0V2.46l-.53,0A16.57,16.57,0,0,0,2.92,8.28"/><path class="cls-1" d="M27.79,15.77v.49c0,3.95-2.62,7.49-6.73,9.18V3.16l-.37-.09a17,17,0,0,0-3.17-.57l-.53,0V30.07l.53-.05c8.18-.71,14.35-6.62,14.35-13.76v-.49Z"/></g></g></svg>