<svg xmlns="http://www.w3.org/2000/svg" viewBox="0 0 283.95 300.46"><defs><style>.cls-1{fill:#2dad77;}.cls-2{fill:#00b0d9;}.cls-3{fill:#ee7d33;}</style></defs><g id="레이어_2" data-name="레이어 2"><g id="레이어_1-2" data-name="레이어 1"><path class="cls-1" d="M137.43,34.74C5.1,48.05-.18,138.13,1.08,162.61a3.13,3.13,0,0,0,4.78,2.53c1.16-.65,1.36-1.48,2.48-2.88l.89-1.34C34.05,124.1,37.1,120.51,66,99.23a16,16,0,0,1-.89-4.51,15.78,15.78,0,1,1,8.11,13C60.6,116.5,45,124.66,22.05,160.14c-1.57,2.43-3.25,4.79-5,7.13C9.3,177.91,2.16,198.48.53,209.61a56.22,56.22,0,0,0,2.11,24.65c.08.24.49,1.6.58,1.83C12,259.63,32.06,274.49,55,264.62c3.08-1.32,2.15-3.17,1.05-3.52-1.25-.39-7.83.55-7.83.55-.21,0-.41.06-.6.08-9,.84-18.09-2.3-23.92-9.27-21.16-25.37-5.74-57.9.19-68.33a7.13,7.13,0,0,1,5.71-3.59c42.88-2.93,69-22,85.92-45.27l6.7-10.23.22-.36c18.7-32.31,21.23-69.34,21.45-84a5.88,5.88,0,0,0-6.5-5.91"/><path class="cls-1" d="M88,93.86a7.08,7.08,0,1,1-7.42-6.73A7.1,7.1,0,0,1,88,93.86"/><path class="cls-2" d="M248.25,228.38c66-115.48-4.32-172.07-25-185.25a3.13,3.13,0,0,0-4.83,2.43c-.14,1.32.41,2,.91,3.69l.57,1.5c15.57,41.58,16.73,46.15,17.26,82.07a15.76,15.76,0,1,1-11.13.93c.22-15.39,2.66-32.85-12.93-72.11-1.07-2.69-2-5.42-2.93-8.17C206,40.94,193.43,23.19,185.31,15.4A56.14,56.14,0,0,0,164,2.82c-.24-.08-1.58-.53-1.82-.59-24.24-6.56-48,1.19-53.32,25.64-.7,3.27,1.34,3.58,2.26,2.89s4.09-6.7,4.09-6.7c.1-.19.2-.37.3-.53,4.56-7.86,12.37-13.4,21.43-14.09,32.94-2.52,50.47,28.93,55.53,39.81a7.12,7.12,0,0,1-.4,6.73c-22.5,36.62-22.13,68.94-13,96.24l4.44,11.4.16.39c15.46,34,44.14,57.53,56,66.23a5.88,5.88,0,0,0,8.59-1.86"/><path class="cls-2" d="M228.78,153.84a7.09,7.09,0,1,1,9.79-2.13,7.08,7.08,0,0,1-9.79,2.13"/><path class="cls-3" d="M30.58,204.29c55.11,121,142.12,97.1,164.89,88a3.13,3.13,0,0,0,.86-5.34c-1-.89-1.84-.82-3.53-1.42l-1.55-.42c-42.84-11.68-47.22-13.41-76.67-34a15.77,15.77,0,1,1,5.75-9.58c12.35,9.19,25.1,21.37,66.06,31.67,2.81.71,5.59,1.54,8.35,2.41,12.58,4,34.35,4.11,45.42,2.08a56.16,56.16,0,0,0,22.66-9.92l1.55-1.13c19.49-15.83,27.1-39.65,10.37-58.24-2.24-2.49-3.69-1-3.67.13,0,1.31,3,7.24,3,7.24.1.19.19.37.27.55,3.7,8.29,3.63,17.87-1.1,25.62-17.22,28.2-53,24-64.77,21.78a7.13,7.13,0,0,1-5.23-4.26c-16.56-39.67-43-58.26-70.47-66.82L121,189.65l-.42-.1c-36.6-7.33-72.48,2.17-86.46,6.69a5.86,5.86,0,0,0-3.51,8"/><path class="cls-3" d="M102.44,232.08a7.08,7.08,0,1,1-4,9.19,7.08,7.08,0,0,1,4-9.19"/></g></g></svg>