<svg xmlns="http://www.w3.org/2000/svg" viewBox="0 0 37.08 39.71"><defs><style>.cls-1{fill:#767676;}</style></defs><g id="레이어_2" data-name="레이어 2"><g id="레이어_1-2" data-name="레이어 1"><path class="cls-1" d="M36.44,18.31,25.6,7.47a2.18,2.18,0,0,0-3.1,0,2.43,2.43,0,0,0,0,3.28l7.12,7.31H11.71a2.21,2.21,0,0,0,0,4.41H29.56L22.5,29.33a2.1,2.1,0,0,0,0,3,2.17,2.17,0,0,0,1.55.59,2.21,2.21,0,0,0,1.55-.67L36.44,21.41a2.2,2.2,0,0,0,0-3.1Z"/><path class="cls-1" d="M20,39.71H2.19A2.19,2.19,0,0,1,0,37.52V2.19A2.19,2.19,0,0,1,2.19,0H20a2.19,2.19,0,1,1,0,4.38H4.38v31H20a2.19,2.19,0,0,1,0,4.38Z"/></g></g></svg>