<svg xmlns="http://www.w3.org/2000/svg" viewBox="0 0 1437.72 1350.69"><defs><style>.cls-1{fill:#ffe05f;}.cls-2{fill:#fed201;}</style></defs><g id="레이어_2" data-name="레이어 2"><g id="Layer_1" data-name="Layer 1"><path class="cls-1" d="M756.39,60.09c-20.16-14.9-55.33-14.9-75.49,0L534.43,173h368.4Z"/><polygon class="cls-1" points="137.44 478.98 85.92 518.68 137.44 557.08 137.44 478.98"/><polygon class="cls-1" points="1300.27 479.39 1300.27 557.09 1351.52 518.9 1300.27 479.39"/><path class="cls-1" d="M908,910.35,1385.24,1266a55.19,55.19,0,0,0,3.62-19.68V574.39a55.15,55.15,0,0,0-3.63-19.68Z"/><path class="cls-1" d="M52.52,554.73a54.79,54.79,0,0,0-3.67,19.66v671.93A55,55,0,0,0,52.48,1266L529.72,910.35Z"/><path class="cls-1" d="M680,859.26l-591,440.41a55.18,55.18,0,0,0,15.3,2.16h1229a55.2,55.2,0,0,0,15.31-2.16l-591-440.41C737,843.84,700.73,843.84,680,859.26Z"/><path class="cls-2" d="M1389.61,486.58l-89.34-68.88V252.93A80,80,0,0,0,1220.33,173H982.85L786,21.26l-.31-.24C748.11-7,689.18-7,651.57,21L454.41,173h-237a80,80,0,0,0-79.95,79.94V417.3L43.51,489.71A104.67,104.67,0,0,0,0,574.39v671.93a104.49,104.49,0,0,0,104.37,104.37h1229a104.49,104.49,0,0,0,104.38-104.37V574.39A103.9,103.9,0,0,0,1389.61,486.58Zm-89.34-7.19,51.25,39.51-51.25,38.19ZM680.9,60.09c20.16-14.9,55.33-14.9,75.49,0L902.83,173H534.43ZM186.3,252.93a31.12,31.12,0,0,1,31.09-31.09H1220.33a31.13,31.13,0,0,1,31.09,31.09V593.5L867.13,879.89l-80.25-59.81c-38.14-28.42-97.89-28.42-136,0L570.6,879.89,186.3,593.49ZM137.44,479v78.1l-51.52-38.4ZM48.85,1246.32V574.39a54.79,54.79,0,0,1,3.67-19.66l477.2,355.62L52.48,1266A55,55,0,0,1,48.85,1246.32Zm1284.49,55.51h-1229a55.18,55.18,0,0,1-15.3-2.16L680,859.26c20.69-15.42,57-15.42,77.64,0l591,440.41A55.2,55.2,0,0,1,1333.34,1301.83Zm55.52-55.51a55.19,55.19,0,0,1-3.62,19.68L908,910.35l477.22-355.64a55.15,55.15,0,0,1,3.63,19.68Z"/><path class="cls-2" d="M707.71,660.86c36.54,0,65-6.43,92.39-20.86l6.9-3.63L792.73,598l-9.05,5.07C765,613.54,740,619.3,713.16,619.3c-70.89,0-118.53-50.22-118.53-125,0-90.22,58.82-155.71,139.85-155.71,68.52,0,111.09,43.9,111.09,114.57,0,53.4-25.62,81.84-44.11,81.84h-.28c-3.43-.1-4.85-1.32-5.8-2.5-2.16-2.72-6.57-12.31-.61-42.5l18.13-96.54-6.28-2.9c-15.46-7.14-36.15-11.23-56.77-11.23-35,0-67.29,13.65-91,38.43a128.39,128.39,0,0,0-35.37,88c0,46.84,31.4,71.35,62.42,71.35,26.55,0,48.15-10.14,65.55-30.89a44.44,44.44,0,0,0,10.1,17.5c8.22,8.63,19.92,13.39,32.93,13.39,48.26,0,97.13-43.58,97.13-126.88,0-42.73-15.05-81.42-42.37-108.94-27.66-27.87-67-43.22-110.78-43.22C684.1,298,635,319.28,600.11,357.86c-33.21,36.74-51.5,86.26-51.5,139.44,0,47.86,16.35,89.15,47.29,119.39C625.05,645.17,664.76,660.86,707.71,660.86Zm41.82-188.41c-4.93,27.79-28.6,60.09-51.74,60.09-20.74,0-23.83-18-23.83-28.8,0-43.55,32-80.35,69.94-80.35a82.14,82.14,0,0,1,14.51,1.25Z"/></g></g></svg>